<svg version="1.1" id="Layer_1" xmlns:x="ns_extend;" xmlns:i="ns_ai;" xmlns:graph="ns_graphs;" xmlns="http://www.w3.org/2000/svg" xmlns:xlink="http://www.w3.org/1999/xlink" x="0px" y="0px" viewBox="0 0 35 42" style="enable-background:new 0 0 35 42;" xml:space="preserve">
 <style type="text/css">
  .st0{fill:#F26207;}
 </style>
 <metadata>
  <sfw xmlns="ns_sfw;">
   <slices>
   </slices>
   <sliceSourceBounds bottomLeftOrigin="true" height="42" width="35" x="111.4" y="-221.2">
   </sliceSourceBounds>
  </sfw>
 </metadata>
 <g>
  <path class="st0" d="M0,2.6C0,1.2,1.2,0,2.6,0h12.2c1.4,0,2.6,1.2,2.6,2.6V14H2.6C1.2,14,0,12.8,0,11.4V2.6z">
  </path>
  <path class="st0" d="M17.5,14h14.9c1.4,0,2.6,1.2,2.6,2.6v8.8c0,1.4-1.2,2.6-2.6,2.6H17.5V14z">
  </path>
  <path class="st0" d="M0,30.6C0,29.2,1.2,28,2.6,28h14.9v11.4c0,1.4-1.2,2.6-2.6,2.6H2.6C1.2,42,0,40.8,0,39.4V30.6z">
  </path>
 </g>
</svg>