<?xml version="1.0" encoding="UTF-8"?><svg id="Layer_1" xmlns="http://www.w3.org/2000/svg" viewBox="0 0 1211.45 233.32"><defs><style>.cls-1{opacity:.7;}.cls-1,.cls-2,.cls-3{fill:#fff;stroke-width:0px;}.cls-2{opacity:.4;}</style></defs><path class="cls-3" d="m142.68,225.46c11.56-23.83,18.52-54.43,18.52-87.8C161.2,61.63,125.11,0,80.6,0S0,61.63,0,137.66c0,33.6,7.05,64.38,18.76,88.28.6,1.22,2.39,3.62,4.98,3.62s2.4-2.7,2.06-4.07c-3.13-12.37-4.86-26.01-4.86-40.33,0-56.27,26.71-101.89,59.66-101.89s59.66,45.62,59.66,101.89c0,14.31-1.73,27.93-4.85,40.29-.35,1.39-.69,4.11,2.23,4.11s4.36-2.71,5.04-4.1h0Z"/><path class="cls-1" d="m126.79,228.56c4.27-13.03,6.7-29.08,6.7-45.07,0-49.89-23.68-96.09-52.89-96.09s-52.9,46.2-52.9,96.09c0,16.09,2.47,32.22,6.79,45.3.43,1.3,2.28,3.85,4.67,3.85s2.6-2.46,2.44-3.71c-.54-4.49-.83-10.16-.83-14.92,0-37.56,17.83-68.02,39.83-68.02s39.82,30.46,39.82,68.02c0,4.75-.28,10.4-.82,14.87-.15,1.26-.28,3.76,2.81,3.76s3.92-2.7,4.38-4.08h0Z"/><path class="cls-2" d="m112.3,209.28c0-29.91-14.19-58.99-31.7-58.99s-31.71,29.08-31.71,58.99c0,7.08.99,13.84,2.43,20.04.32,1.36,1.09,4,3.74,4s2.88-2.48,3.31-3.72c4.42-12.49,12.61-22.95,22.23-22.95s17.54,10.34,21.97,22.78c.47,1.29,1.63,3.89,3.65,3.89s3.15-2.64,3.47-4c1.44-6.2,2.61-12.96,2.61-20.04h0Z"/><path class="cls-3" d="m289.38,125.23c4.75-1.41,8.55-3.92,11.41-7.53,2.86-3.61,4.29-8.14,4.29-13.59,0-7.4-2.66-13.25-7.98-17.56-5.33-4.31-12.7-6.47-22.11-6.47h-41.71v92.67h43.16c9.68,0,17.23-2.27,22.64-6.8s8.12-10.67,8.12-18.42c0-5.36-1.63-10.14-4.89-14.32-3.26-4.18-7.57-6.84-12.93-7.98h0Zm-33.53-27.06h14.78c3.7,0,6.54.83,8.51,2.5,1.99,1.68,2.98,4.1,2.98,7.26s-.99,5.57-2.98,7.2c-1.97,1.63-4.81,2.44-8.51,2.44h-14.78v-19.4h0Zm16.63,56.36h-16.63v-20.46h16.37c3.78,0,6.75.92,8.91,2.77,2.15,1.85,3.23,4.4,3.23,7.66s-1.04,5.74-3.1,7.46c-2.07,1.71-5,2.57-8.78,2.57h0Zm122.51-56.36v-18.09h-56.76v92.67h56.76v-18.09h-34.19v-20.33h30.23v-17.42h-30.23v-18.74s34.19,0,34.19,0Zm28.98-18.09v18.09h24.56v74.58h22.57v-74.58h24.55v-18.09h-71.68Zm100.63,0v18.09h24.55v74.58h22.57v-74.58h24.55v-18.09h-71.67Zm161.55,18.09v-18.09h-56.76v92.67h56.76v-18.09h-34.19v-20.33h30.23v-17.42h-30.23v-18.74s34.19,0,34.19,0Zm107.89,74.58l-21.38-36.7c6.77-2.02,11.9-5.46,15.38-10.3,3.47-4.83,5.21-10.34,5.21-16.5,0-5.45-1.28-10.4-3.83-14.85-2.55-4.44-6.4-7.94-11.55-10.49-5.14-2.55-11.37-3.83-18.67-3.83h-37.89v92.67h22.57v-34.98h5.42l19.27,34.98h25.47Zm-50.16-73.92h14c4.13,0,7.23,1.01,9.3,3.03,2.07,2.03,3.1,4.8,3.1,8.32s-1.03,6.55-3.1,8.58c-2.07,2.02-5.17,3.03-9.3,3.03h-14v-22.96h0Zm110.7-18.75h-22.57v92.67h52.14v-17.43h-29.57v-75.24h0Zm130.07,92.67h23.89l-33.53-92.67h-26.13l-33.53,92.67h23.63l5.54-16.37h34.58l5.55,16.37h0Zm-34.19-33.8l11.35-33.92,11.49,33.92h-22.84,0Zm144.86-13.72c4.75-1.41,8.55-3.92,11.42-7.53,2.85-3.61,4.29-8.14,4.29-13.59,0-7.4-2.67-13.25-7.99-17.56-5.33-4.31-12.7-6.47-22.11-6.47h-41.71v92.67h43.16c9.68,0,17.23-2.27,22.64-6.8s8.12-10.67,8.12-18.42c0-5.36-1.63-10.14-4.89-14.32-3.25-4.18-7.57-6.84-12.93-7.98h0Zm-33.53-27.06h14.78c3.7,0,6.54.83,8.52,2.5,1.98,1.68,2.97,4.1,2.97,7.26s-.99,5.57-2.97,7.2-4.82,2.44-8.52,2.44h-14.78v-19.4h0Zm16.63,56.36h-16.63v-20.46h16.37c3.78,0,6.75.92,8.91,2.77,2.15,1.85,3.23,4.4,3.23,7.66s-1.03,5.74-3.1,7.46c-2.07,1.71-5,2.57-8.78,2.57h0Zm99.24,19.14c6.95,0,12.98-1.27,18.08-3.83,5.11-2.55,9-5.98,11.68-10.29,2.69-4.31,4.03-9.11,4.03-14.39,0-5.55-1.36-10.08-4.09-13.6s-5.96-6.2-9.7-8.05c-3.74-1.85-8.61-3.78-14.59-5.81-5.98-1.93-10.38-3.74-13.2-5.41s-4.22-4-4.22-7c0-2.72.83-4.81,2.5-6.27,1.68-1.45,3.88-2.17,6.6-2.17,3.17,0,5.77.85,7.79,2.57,2.03,1.72,3.13,4.07,3.3,7.06h24.42c-.44-8.71-3.78-15.51-10.03-20.39-6.25-4.89-14.48-7.33-24.68-7.33s-18.18,2.44-24.42,7.33c-6.25,4.88-9.38,11.64-9.38,20.26,0,5.81,1.37,10.52,4.1,14.12,2.72,3.61,5.98,6.34,9.76,8.19,3.79,1.85,8.67,3.69,14.66,5.54,4.13,1.24,7.32,2.33,9.57,3.3,2.24.97,4.13,2.2,5.67,3.7s2.31,3.39,2.31,5.67c0,2.73-.97,4.87-2.9,6.41-1.94,1.54-4.58,2.31-7.92,2.31s-5.9-.91-7.92-2.71c-2.03-1.8-3.21-4.42-3.57-7.85h-24.02c.18,6.07,1.87,11.26,5.08,15.57s7.5,7.57,12.87,9.77,11.44,3.3,18.22,3.3h0Z"/></svg>