<svg viewBox="0 0 474 172" aria-hidden="true" class="h-8"><g transform="translate(0, 0) scale(0.85)"><svg viewBox="0 0 92 172" aria-hidden="true" preserveAspectRatio="xMinYMid meet"><g class="stroke-black fill-black"><path fill-rule="evenodd" clip-rule="evenodd" d="M20.0211 171.149C30.5499 171.149 39.0852 162.614 39.0852 152.085C39.0852 141.556 30.5499 133.021 20.0211 133.021C9.49232 133.021 0.957031 141.556 0.957031 152.085C0.957031 162.614 9.49232 171.149 20.0211 171.149ZM20.0211 163.015C26.0576 163.015 30.9512 158.122 30.9512 152.085C30.9512 146.049 26.0576 141.155 20.0211 141.155C13.9846 141.155 9.09106 146.049 9.09106 152.085C9.09106 158.122 13.9846 163.015 20.0211 163.015Z"></path><path d="M20.2031 36.4298V92.3511" stroke-width="8.13401"></path><path d="M20.0244 121.329C28.3071 121.329 35.0215 114.614 35.0215 106.332C35.0215 98.049 28.3071 91.3346 20.0244 91.3346C11.7418 91.3346 5.02734 98.049 5.02734 106.332C5.02734 114.614 11.7418 121.329 20.0244 121.329Z" stroke-width="8.13401" fill="none"></path><path fill-rule="evenodd" clip-rule="evenodd" d="M20.0211 39.1131C30.5499 39.1131 39.0852 30.5779 39.0852 20.049C39.0852 9.52024 30.5499 0.984985 20.0211 0.984985C9.49232 0.984985 0.957031 9.52024 0.957031 20.049C0.957031 30.5779 9.49232 39.1131 20.0211 39.1131ZM20.0211 30.9791C26.0576 30.9791 30.9512 26.0855 30.9512 20.049C30.9512 14.0125 26.0576 9.11893 20.0211 9.11893C13.9846 9.11893 9.09106 14.0125 9.09106 20.049C9.09106 26.0855 13.9846 30.9791 20.0211 30.9791Z"></path><path fill-rule="evenodd" clip-rule="evenodd" d="M20.0211 125.395C30.5499 125.395 39.0852 116.86 39.0852 106.331C39.0852 95.8023 30.5499 87.2672 20.0211 87.2672C9.49232 87.2672 0.957031 95.8023 0.957031 106.331C0.957031 116.86 9.49232 125.395 20.0211 125.395ZM20.0211 117.261C26.0576 117.261 30.9512 112.368 30.9512 106.331C30.9512 100.295 26.0576 95.4012 20.0211 95.4012C13.9846 95.4012 9.09106 100.295 9.09106 106.331C9.09106 112.368 13.9846 117.261 20.0211 117.261Z"></path><path fill-rule="evenodd" clip-rule="evenodd" d="M72.0094 171.149C82.5384 171.149 91.0735 162.614 91.0735 152.085C91.0735 141.556 82.5384 133.021 72.0094 133.021C61.4804 133.021 52.9453 141.556 52.9453 152.085C52.9453 162.614 61.4804 171.149 72.0094 171.149ZM72.0094 163.015C78.0459 163.015 82.9395 158.122 82.9395 152.085C82.9395 146.049 78.0459 141.155 72.0094 141.155C65.9729 141.155 61.0793 146.049 61.0793 152.085C61.0793 158.122 65.9729 163.015 72.0094 163.015Z"></path><path fill-rule="evenodd" clip-rule="evenodd" d="M72.0094 101.697C82.5384 101.697 91.0735 93.1619 91.0735 82.6334C91.0735 72.1044 82.5384 63.5693 72.0094 63.5693C61.4804 63.5693 52.9453 72.1044 52.9453 82.6334C52.9453 93.1619 61.4804 101.697 72.0094 101.697ZM72.0094 93.5635C78.0459 93.5635 82.9395 88.6699 82.9395 82.6334C82.9395 76.597 78.0459 71.7033 72.0094 71.7033C65.9729 71.7033 61.0793 76.597 61.0793 82.6334C61.0793 88.6699 65.9729 93.5635 72.0094 93.5635Z"></path><path d="M24.2501 38.0265H16.1289V90.7552H24.2501V38.0265Z"></path><path d="M24.2501 119.751H16.1289V139.152H24.2501V119.751Z"></path><path d="M32.2358 95.3308L35.668 102.691L62.8991 89.993L59.4669 82.6327L32.2358 95.3308Z"></path><path d="M33.5639 112.423L28.3438 118.644L57.1382 142.806L62.3584 136.584L33.5639 112.423Z"></path></g></svg></g><g transform="translate(100, 20) scale(0.85)" class="fill-black"><path d="M70.2892 73.212L104.59 142.855H70.2892L48.2913 95.1057L30.0462 115.957V142.855H0.75V0.545166H30.0462V85.8273L34.6332 80.0929C36.5793 77.4518 38.2127 75.3319 39.5335 73.7331L70.2892 37.5561H100.524L70.2892 73.212Z"></path><path d="M201.209 142.856H170.141V83.7425C170.141 76.5836 169.863 71.6833 169.306 69.0423C168.751 66.4013 167.395 64.1772 165.24 62.3699C163.086 60.4935 160.375 59.555 157.108 59.555C146.196 59.555 140.74 67.6173 140.74 83.7425V142.856H109.672V37.5566H138.551V55.3848C143.347 46.9051 148.073 41.4492 152.73 39.0162C157.386 36.5836 162.426 35.3676 167.847 35.3676C177.856 35.3676 185.918 38.0782 192.034 43.4995C198.151 48.8512 201.209 59.4157 201.209 75.1937V142.856Z"></path><path d="M275.824 73.212L310.124 142.855H275.824L253.826 95.1057L235.581 115.957V142.855H206.285V0.545166H235.581V85.8273L240.168 80.0929C242.114 77.4518 243.748 75.3319 245.069 73.7331L275.824 37.5561H306.058L275.824 73.212Z"></path><path d="M357.77 61.7436V106.262C357.77 111.822 358.604 115.54 360.273 117.417C361.941 119.294 365.867 120.232 372.053 120.232C374.903 120.232 378.205 120.093 381.958 119.815V142.855C372.922 144.385 366.424 145.149 362.462 145.149C349.534 145.149 340.36 142.681 334.938 137.747C329.516 132.743 326.806 123.742 326.806 110.744V61.7436H310.125V37.5561H328.579L331.081 6.48786L357.77 4.40271V37.5561H380.498V61.7436H357.77Z"></path></g></svg>