<?xml version="1.0" encoding="utf-8"?>
<!-- Generator: Adobe Illustrator 27.5.0, SVG Export Plug-In . SVG Version: 6.00 Build 0)  -->
<svg version="1.1" id="Layer_1" xmlns="http://www.w3.org/2000/svg" xmlns:xlink="http://www.w3.org/1999/xlink" x="0px" y="0px"
	 viewBox="0 0 597 193" style="enable-background:new 0 0 597 193;" xml:space="preserve">
<style type="text/css">
	.st0{fill:#231F20;}
	.st1{fill:#FF00FF;}
</style>
<g>
	<g>
		<path class="st0" d="M23.6,99.1c10.6,6.1,22.6,8.7,28.5,8.7c4.9,0,8.5-1.8,8.5-6.1c0-6.1-6.8-6.1-17.7-9.9
			C29.9,87.3,21,81,21,67.2c0-16.6,12.8-27.1,31.9-27.1c8.8,0,19.8,2.2,27.8,6.2v22.4c-10.2-5.8-21.5-8.5-27.6-8.5
			c-4.5,0-7.5,1.4-7.5,5.2c0,5.5,6.6,5.5,17,9.2c13.3,4.7,22.6,11.3,22.6,25.7c0,17.2-13.5,27.7-33.3,27.7c-8.7,0-19.7-2-28.3-6.1
			V99.1z"/>
		<path class="st0" d="M143,124.2c-4.7,2.6-11.7,3.8-17.8,3.8c-20.5,0-34.5-13-34.5-30.1c0-18.5,16.4-30.4,35.1-30.4
			c5.9,0,11.9,1.2,16.4,3.4V91c-4.7-2.7-9.7-4.6-14.7-4.6c-7.9,0-13.2,4.7-13.2,11.3c0,6.7,5.4,11.2,13.4,11.2
			c5.1,0,11.2-1.9,15.3-4.8V124.2z"/>
		<path class="st0" d="M153.7,68.7h22.8V75l0.2,0.1c3.8-4.4,9.1-7.4,15.4-7.4c1.5,0,3.2,0.2,4.2,0.5v21.4c-2.1-0.5-4.5-0.7-6.4-0.7
			c-4.9,0-9.2,1.2-13.1,4.8v33h-23.3V68.7z"/>
		<path class="st1" d="M216.3,37.3c6.8,0,12.2,5.4,12.2,12.1c0,6.7-5.4,12.1-12.2,12.1c-6.8,0-12.2-5.4-12.2-12.1
			C204.1,42.7,209.5,37.3,216.3,37.3z"/>
		<rect x="204.7" y="68.7" class="st0" width="23.3" height="57.9"/>
		<path class="st0" d="M263.7,152.6h-23.3V68.7h22.8v2.5l0.2,0.1c3.8-2.5,8.2-3.9,13-3.9c14.5,0,27.3,11.5,27.3,29.7
			c0,18.5-13.3,30.8-30.5,30.8c-4,0-7.1-0.7-9.3-1.8l-0.2,0.1V152.6z M269,109.9c7.9,0,11.2-5.3,11.2-11.9c0-6.7-3.5-12-10.4-12
			c-2.6,0-4.6,0.8-6.1,1.6V109C265.1,109.6,267,109.9,269,109.9z"/>
		<path class="st0" d="M354,125.1c-3.3,1.5-8.9,2.8-14.5,2.8c-7.2,0-13.3-2.2-17.1-6c-3.3-3.3-5.7-8.2-5.7-18.2V87.1h-8.6V68.7h8.6
			V54.3l23.3-4v18.5H354v18.4h-13.9v15c0,4.6,1.4,7.2,5.8,7.2c2.6,0,5.7-0.9,8.1-1.9V125.1z"/>
		<path class="st0" d="M393.2,67.4c19.4,0,33.4,13.2,33.4,30.3c0,17.1-14,30.3-33.4,30.3c-19.4,0-33.4-13.2-33.4-30.3
			C359.8,80.6,373.8,67.4,393.2,67.4z M393.2,108.5c6,0,10.4-4.7,10.4-10.8c0-6.1-4.4-10.8-10.4-10.8s-10.4,4.7-10.4,10.8
			C382.8,103.8,387.2,108.5,393.2,108.5z"/>
	</g>
	<g>
		<polygon class="st0" points="435.3,41.7 427,52.4 424.4,51.2 433.7,38.5 		"/>
		<polygon class="st0" points="448.5,53.4 438.9,61.6 436.4,61.4 445.5,51.4 		"/>
		<polygon class="st0" points="454.5,66 442.4,73.4 444,75.2 460.9,66.5 458.8,65.4 		"/>
		<polygon class="st0" points="462.9,82.2 446.4,85.5 448.6,87.1 463.9,84.5 		"/>
		<polygon class="st0" points="467,100.1 449,98.4 449,101 467.1,101.2 		"/>
		<polygon class="st0" points="446.8,111.3 445,113.4 463.5,119.6 464.4,117.3 		"/>
		<polygon class="st0" points="439.6,122.2 438.4,123.6 453.8,134.5 455,131.9 		"/>
		<polygon class="st0" points="432,132.4 429.9,133.6 444.8,148.4 446.7,145.8 		"/>
		<polygon class="st0" points="422.9,140.4 420.7,142.3 427.5,158.1 431.9,155.9 		"/>
	</g>
	<g>
		<path class="st1" d="M518.2,123.8c-4.2,2.6-9.3,4.1-15.1,4.1c-5.3,0-9.9-1.2-13.7-3.7c-4.6-3.1-7.4-7.7-7.4-13.9
			c0-6.2,2.9-11.1,6.8-13.9c4.5-3.3,10.6-4.4,16.2-4.4c3.2,0,6,0.4,8.8,0.9v-0.8c0-1.8-0.5-3.1-1.6-4.2c-1.8-1.6-4.7-2.1-7.8-2.1
			c-6.1,0-12,1.9-16.8,3.9V71.7c4.9-2.2,12.7-4.2,21.4-4.2c8.4,0,16,1.9,21,5.7c5.2,3.9,7.2,9.3,7.2,16.6v16.7
			c0,2.4,0.8,3.8,2.9,3.8c0.8,0,1.8-0.2,2.7-0.7v16c-2.5,1.4-6.5,2.2-11,2.2c-4.8,0-9.7-0.9-13.5-3.9H518.2z M514,104.5
			c-1.1-0.2-2.6-0.4-3.4-0.4c-3.1,0-5.9,1.2-5.9,4.2c0,2.8,2.5,4.1,5.2,4.1c1.4,0,2.9-0.4,4.1-0.8V104.5z"/>
		<path class="st1" d="M562.5,37.3c6.8,0,12.2,5.4,12.2,12.1c0,6.7-5.4,12.1-12.2,12.1c-6.8,0-12.2-5.4-12.2-12.1
			C550.2,42.7,555.7,37.3,562.5,37.3z M550.8,68.7h23.3v57.9h-23.3V68.7z"/>
	</g>
</g>
</svg>
